# xmcd
#
# Track frame offsets: 
#        150
#        13737
#        25821
#        39359
#        56322
#        72319
#        86382
#        106150
#        119785
#        136531
#
# Disc length: 2067 seconds
#
# Revision: 0
# Processed by: cddbd v1.5.2PL0 Copyright (c) Steve Scherf et al.
# Submitted via: ExactAudioCopyFreeDBPlugin 1.0
#
DISCID=7708110a
DTITLE=Rob Darien - Ain't Enough
DYEAR=2005
DGENRE=Country
TTITLE0=Neon Nightcourt
TTITLE1=All Night Long
TTITLE2=Ain't Enough
TTITLE3=Deep In Love
TTITLE4=Gunshot Lover
TTITLE5=Survive
TTITLE6=Folsom Prison
TTITLE7=The Driller
TTITLE8=Devil Dances
TTITLE9=First Time
EXTD=
EXTT0=
EXTT1=
EXTT2=
EXTT3=
EXTT4=
EXTT5=
EXTT6=
EXTT7=
EXTT8=
EXTT9=
PLAYORDER=
